<?xml version="1.0" standalone="no"?>
<!DOCTYPE svg PUBLIC "-//W3C//DTD SVG 20010904//EN"
 "http://www.w3.org/TR/2001/REC-SVG-20010904/DTD/svg10.dtd">
<svg version="1.0" xmlns="http://www.w3.org/2000/svg"
 width="13.000000pt" height="28.000000pt" viewBox="0 0 13.000000 28.000000"
 preserveAspectRatio="xMidYMid meet">
<metadata>
Created by potrace 1.10, written by Peter Selinger 2001-2011
</metadata>
<g transform="translate(0.000000,28.000000) scale(0.100000,-0.100000)"
fill="#000000" stroke="none">
<path d="M49 234 c-42 -44 -43 -46 -25 -60 11 -8 23 -14 28 -14 15 0 8 -18
-18 -49 -37 -45 -17 -37 39 14 47 44 48 44 25 56 -13 6 -24 13 -26 14 -1 1 5
19 13 40 9 20 15 39 12 41 -2 2 -23 -17 -48 -42z"/>
<path d="M30 35 c0 -17 6 -25 18 -25 11 0 17 8 17 25 0 17 -6 25 -17 25 -12 0
-18 -8 -18 -25z"/>
</g>
</svg>
