<?xml version="1.0" standalone="no"?>
<!DOCTYPE svg PUBLIC "-//W3C//DTD SVG 20010904//EN"
 "http://www.w3.org/TR/2001/REC-SVG-20010904/DTD/svg10.dtd">
<svg version="1.0" xmlns="http://www.w3.org/2000/svg"
 width="101.000000pt" height="32.000000pt" viewBox="0 0 101.000000 32.000000"
 preserveAspectRatio="xMidYMid meet">
<metadata>
Created by potrace 1.10, written by Peter Selinger 2001-2011
</metadata>
<g transform="translate(0.000000,32.000000) scale(0.100000,-0.100000)"
fill="#000000" stroke="none">
<path d="M926 271 l-47 -48 30 -13 c38 -15 38 -20 5 -59 -37 -45 -17 -37 39
14 47 44 48 44 25 56 -13 6 -24 13 -26 14 -1 1 5 19 13 40 9 20 15 39 12 41
-2 2 -25 -18 -51 -45z"/>
<path d="M222 168 c2 -86 7 -123 16 -126 9 -3 12 14 12 62 l0 66 38 0 37 0 0
-62 c0 -40 4 -63 13 -65 9 -4 12 25 12 121 0 110 -2 126 -16 126 -14 0 -16 -9
-12 -50 l5 -50 -38 0 -39 0 0 50 c0 38 -4 50 -15 50 -13 0 -15 -18 -13 -122z"/>
<path d="M447 168 c1 -76 6 -124 12 -126 7 -2 11 20 11 63 l0 67 40 -4 c28 -2
40 0 40 9 0 8 -14 13 -40 13 -40 0 -40 0 -40 40 l0 40 50 0 c28 0 50 5 50 10
0 6 -28 10 -62 10 l-63 0 2 -122z"/>
<path d="M640 176 c0 -64 0 -119 -1 -123 0 -4 4 -9 10 -11 7 -2 11 35 13 105
l3 108 20 -62 c19 -60 35 -81 35 -47 0 23 22 94 29 94 3 0 6 -43 6 -97 0 -70
4 -97 13 -101 10 -3 13 16 11 84 -2 118 -9 164 -24 164 -6 0 -18 -19 -25 -42
-20 -65 -22 -66 -40 -12 -10 29 -24 50 -33 52 -15 3 -17 -10 -17 -112z"/>
<path d="M46 253 c1 -41 34 -44 34 -4 0 23 -5 31 -18 31 -13 0 -17 -7 -16 -27z"/>
<path d="M55 159 c-28 -28 -45 -53 -39 -56 6 -2 19 -10 29 -17 18 -13 17 -14
-3 -44 -12 -16 -22 -33 -22 -37 0 -7 92 74 98 85 1 4 -9 12 -23 18 l-25 11 20
46 c11 25 18 45 17 45 -2 0 -25 -23 -52 -51z"/>
<path d="M910 69 c0 -23 4 -30 17 -27 24 4 25 58 1 58 -13 0 -18 -8 -18 -31z"/>
</g>
</svg>
